# xmcd CD database file
#
# Track frame offsets:
#	150
#	15707
#	27271
#	37926
#	57018
#	75601
#	92022
#	106620
#	119619
#	136568
#	157514
#	172670
#	188013
#	204360
#	219231
#
# Disc length: 3133 seconds
#
# Revision: 0
# Processed by: cddbd v1.5.2PL0 Copyright (c) Steve Scherf et al.
# Submitted via: CDex 1.70beta2
#
DISCID=a00c3b0f
DTITLE=Compay Segundo - El Compadre Again
DYEAR=2005
DGENRE=Salsa
TTITLE0=Lupina
TTITLE1=Oui, Je Parle Français
TTITLE2=Te Apartas De Mi
TTITLE3=Chan Chan
TTITLE4=Pobre Corazon
TTITLE5=Me Diras Que Sabroso
TTITLE6=Descripcion De Un Seu￱o
TTITLE7=Villancico Guajiro (D￩cada del 50)
TTITLE8=Alli Donde Tu Sabes
TTITLE9=A La Casa De La Trova
TTITLE10=Ca Sabe Y Macho
TTITLE11=El Calderito
TTITLE12=De Jatibonico A Bolondron
TTITLE13=No Quiero Celos Contigo
TTITLE14=Yo Soy Del Monte Compay
EXTD=YEAR: 2005
EXTT0=
EXTT1=
EXTT2=
EXTT3=
EXTT4=
EXTT5=
EXTT6=
EXTT7=
EXTT8=
EXTT9=
EXTT10=
EXTT11=
EXTT12=
EXTT13=
EXTT14=
PLAYORDER=
